<svg xmlns="http://www.w3.org/2000/svg" xmlns:xlink="http://www.w3.org/1999/xlink" class="mySVG" viewBox="0 0 200 200"><defs><circle id="a" cx="100" cy="100" r="100"/></defs><clipPath id="d"><use xlink:href="#a" overflow="visible"/></clipPath><circle cx="100" cy="100" r="100" fill="#a9ddf3"/><g class="body"><path fill="#FFF" stroke="#3A5E77" stroke-linecap="round" stroke-width="2.5" d="M200 158.5c0-20.2-14.8-36.5-35-36.5h-14.9V72.8c0-27.4-21.7-50.4-49.1-50.8-28-.5-50.9 22.1-50.9 50v50H35.8C16 122 0 138 0 157.8V213h200v-54.5z" class="bodyBGnormal"/><path fill="#DDF1FA" d="M100 156.4c-22.9 0-43 11.1-54.1 27.7 15.6 10 34.2 15.9 54.1 15.9s38.5-5.8 54.1-15.9c-11.1-16.6-31.2-27.7-54.1-27.7z"/></g><g class="earL"><g fill="#ddf1fa" stroke="#3a5e77" stroke-width="2.5" class="outerEar"><circle cx="47" cy="83" r="11.5"/><path stroke-linecap="round" stroke-linejoin="round" d="M46.3 78.9c-2.3 0-4.1 1.9-4.1 4.1 0 2.3 1.9 4.1 4.1 4.1"/></g><g class="earHair"><path fill="#FFF" d="M51 64h15v35H51z"/><path fill="#fff" stroke="#3a5e77" stroke-linecap="round" stroke-linejoin="round" stroke-width="2.5" d="M53.4 62.8C48.5 67.4 45 72.2 42.8 77c3.4-.1 6.8-.1 10.1.1-4 3.7-6.8 7.6-8.2 11.6 2.1 0 4.2 0 6.3.2-2.6 4.1-3.8 8.3-3.7 12.5 1.2-.7 3.4-1.4 5.2-1.9"/></g></g><g class="earR"><g fill="#DDF1FA" stroke="#3A5E77" stroke-width="2.5" class="outerEar"><circle cx="153" cy="83" r="11.5"/><path stroke-linecap="round" stroke-linejoin="round" d="M153.7 78.9c2.3 0 4.1 1.9 4.1 4.1 0 2.3-1.9 4.1-4.1 4.1"/></g><g fill="#FFF" class="earHair"><path d="M134 64h15v35h-15z"/><path stroke="#3A5E77" stroke-linecap="round" stroke-linejoin="round" stroke-width="2.5" d="M146.6 62.8c4.9 4.6 8.4 9.4 10.6 14.2-3.4-.1-6.8-.1-10.1.1 4 3.7 6.8 7.6 8.2 11.6-2.1 0-4.2 0-6.3.2 2.6 4.1 3.8 8.3 3.7 12.5-1.2-.7-3.4-1.4-5.2-1.9"/></g></g><path fill="none" stroke="#3a5e77" stroke-linecap="round" stroke-linejoin="round" stroke-width="2.5" d="M84.1 121.6c2.7 2.9 6.1 5.4 9.8 7.5l.9-4.5c2.9 2.5 6.3 4.8 10.2 6.5 0-1.9-.1-3.9-.2-5.8 3 1.2 6.2 2 9.7 2.5-.3-2.1-.7-4.1-1.2-6.1" class="chin"/><path fill="#DDF1FA" d="M134.5 46v35.5c0 21.815-15.446 39.5-34.5 39.5s-34.5-17.685-34.5-39.5V46" class="face"/><path fill="#FFF" stroke="#3A5E77" stroke-linecap="round" stroke-linejoin="round" stroke-width="2.5" d="M81.457 27.929c1.755-4.084 5.51-8.262 11.253-11.77.979 2.565 1.883 5.14 2.712 7.723 3.162-4.265 8.626-8.27 16.272-11.235a150.43 150.43 0 0 1-2.554 9.837c4.857-2.116 11.049-3.64 18.428-4.156a119.288 119.288 0 0 1-7.852 9.474" class="hair"/><g fill="#FFF" class="eyebrow"><path d="M138.142 55.064a98.573 98.573 0 0 1-14.787 2.599 164.847 164.847 0 0 1-1.322 10.037 96.303 96.303 0 0 1-12.996-5.226 146.87 146.87 0 0 1-3.267 9.179 97.781 97.781 0 0 1-15.097-10.329 127.781 127.781 0 0 1-5.816 8.515c-7.916-4.124-15.053-9.114-21.296-14.738l1.107-11.768h73.475v11.731z"/><path stroke="#3A5E77" stroke-linecap="round" stroke-linejoin="round" stroke-width="2.5" d="M63.56 55.102c6.243 5.624 13.38 10.614 21.296 14.738a127.781 127.781 0 0 0 5.816-8.515 97.593 97.593 0 0 0 15.097 10.329 147.099 147.099 0 0 0 3.267-9.179 96.303 96.303 0 0 0 12.996 5.226 165.64 165.64 0 0 0 1.322-10.037 98.573 98.573 0 0 0 14.787-2.599"/></g><g class="eyeL"><circle cx="85.5" cy="78.5" r="3.5" fill="#3a5e77"/><circle cx="84" cy="76" r="1" fill="#fff"/></g><g class="eyeR"><circle cx="114.5" cy="78.5" r="3.5" fill="#3a5e77"/><circle cx="113" cy="76" r="1" fill="#fff"/></g><g class="mouth"><path fill="#617E92" d="M100.2 101h-1.8c-2.7-.3-5.3-1.1-8-2.5-.7-.3-.9-1.2-.6-1.8.2-.5.7-.7 1.2-.7.2 0 .5.1.6.2 3 1.5 5.8 2.3 8.6 2.3s5.7-.7 8.6-2.3c.2-.1.4-.2.6-.2.5 0 1 .3 1.2.7.4.7.1 1.5-.6 1.9a22 22 0 0 1-7.9 2.5c-.4-.1-1.6-.1-1.9-.1z" class="mouthBG"/><defs><path id="b" d="M100.2 101h-1.8c-2.7-.3-5.3-1.1-8-2.5-.7-.3-.9-1.2-.6-1.8.2-.5.7-.7 1.2-.7.2 0 .5.1.6.2 3 1.5 5.8 2.3 8.6 2.3s5.7-.7 8.6-2.3c.2-.1.4-.2.6-.2.5 0 1 .3 1.2.7.4.7.1 1.5-.6 1.9a22 22 0 0 1-7.9 2.5c-.4-.1-1.6-.1-1.9-.1z"/></defs><clipPath id="c"><use xlink:href="#b" overflow="visible"/></clipPath><g class="tongue" clip-path="url(#c)"><circle cx="100" cy="107" r="8" fill="#cc4a6c"/><ellipse cx="100" cy="100.5" fill="#fff" class="tongueHighlight" opacity=".1" rx="3" ry="1.5"/></g><path d="M106 97h-4c-1.1 0-2-.9-2-2v-2h8v2c0 1.1-.9 2-2 2z" class="tooth" clip-path="url(#c)" style="fill:#fff"/><path fill="none" stroke="#3A5E77" stroke-linejoin="round" stroke-width="2.5" d="M100.2 101h-1.8c-2.7-.3-5.3-1.1-8-2.5-.7-.3-.9-1.2-.6-1.8.2-.5.7-.7 1.2-.7.2 0 .5.1.6.2 3 1.5 5.8 2.3 8.6 2.3s5.7-.7 8.6-2.3c.2-.1.4-.2.6-.2.5 0 1 .3 1.2.7.4.7.1 1.5-.6 1.9a22 22 0 0 1-7.9 2.5c-.4-.1-1.6-.1-1.9-.1z" class="mouthOutline"/></g><path fill="#3a5e77" d="M97.7 79.9h4.7c1.9 0 3 2.2 1.9 3.7l-2.3 3.3c-.9 1.3-2.9 1.3-3.8 0l-2.3-3.3c-1.3-1.6-.2-3.7 1.8-3.7z" class="nose"/></svg>
